<svg width="24" height="24" viewBox="0 0 24 24" fill="none" xmlns="http://www.w3.org/2000/svg">
<path d="M20.657 10.8428C20.5284 10.7571 20.3141 10.7999 20.1856 10.8856L16.8856 13.4999V11.0142C16.8856 10.8428 16.7998 10.7142 16.6713 10.6285C16.5427 10.5428 16.3713 10.5856 16.2427 10.6714L12.2141 13.5856L11.9998 10.8856C11.9998 10.7571 11.9141 10.5856 11.7856 10.5428C11.657 10.4571 11.4856 10.4999 11.357 10.5428L6.51413 13.4571V9.51422C6.81413 9.34279 7.07127 9.1285 7.2427 8.8285C7.45699 8.91422 7.71413 8.91422 7.97127 8.91422C8.91413 8.91422 9.72842 8.39993 10.157 7.6285C10.2856 7.6285 10.4141 7.67136 10.5856 7.67136C12.3427 7.67136 13.757 6.25707 13.757 4.49993C13.757 2.74279 12.3427 1.28564 10.5856 1.28564C8.99985 1.28564 7.71413 2.39993 7.45699 3.94279C6.3427 4.15707 5.52842 5.09993 5.4427 6.25707C4.62842 6.38564 3.98556 7.11422 3.98556 7.97136C3.98556 8.01422 3.98556 8.05707 3.98556 8.05707H3.55699C3.29985 8.05707 3.12842 8.2285 3.12842 8.48564V22.2856C3.12842 22.5428 3.29985 22.7142 3.55699 22.7142H20.4856C20.7427 22.7142 20.9141 22.5428 20.9141 22.2856V11.2285C20.8713 11.0571 20.7856 10.9285 20.657 10.8428ZM4.8427 7.97136C4.8427 7.45707 5.22842 7.07136 5.7427 7.07136C5.78556 7.07136 5.82842 7.07136 5.87127 7.07136C5.99985 7.07136 6.12842 7.0285 6.21413 6.94279C6.29985 6.85707 6.3427 6.7285 6.3427 6.59993C6.3427 6.51422 6.3427 6.47136 6.3427 6.38564C6.3427 5.5285 7.02842 4.75707 7.88556 4.71422C8.09985 4.71422 8.27127 4.54279 8.27127 4.3285C8.31413 3.08564 9.3427 2.14279 10.5856 2.14279C11.8713 2.14279 12.8998 3.17136 12.8998 4.49993C12.8998 5.78564 11.8713 6.81422 10.5856 6.81422C10.4141 6.81422 10.1998 6.77136 10.0284 6.7285C9.81413 6.68564 9.59985 6.77136 9.51413 6.98564C9.25699 7.6285 8.65699 8.05707 7.97127 8.05707C7.71413 8.05707 7.45699 8.01422 7.19985 7.88564C7.07127 7.84279 6.9427 7.84279 6.81413 7.88564C6.68556 7.9285 6.59985 8.05707 6.55699 8.18564C6.55699 8.27136 6.51413 8.35707 6.47128 8.44279C6.42842 8.2285 6.25699 8.09993 6.0427 8.09993H4.79985C4.8427 8.05707 4.8427 8.01422 4.8427 7.97136ZM4.49985 8.91422H5.65699V9.59993H3.98556V8.91422H4.49985ZM20.0141 21.8571H3.98556V10.4999H5.65699V14.2285C5.65699 14.3999 5.7427 14.5285 5.87127 14.6142C5.99985 14.6999 6.17127 14.6999 6.29985 14.6142L11.1856 11.6999L11.3998 14.4428C11.3998 14.6142 11.4856 14.7428 11.657 14.7856C11.7856 14.8714 11.957 14.8285 12.0856 14.7428L16.0713 11.8714V14.3999C16.0713 14.5714 16.157 14.6999 16.3284 14.7856C16.457 14.8714 16.6713 14.8285 16.7998 14.7428L20.0998 12.1285V21.8571H20.0141Z" fill="black"/>
<path d="M17.2713 20.5713H19.1142C19.3713 20.5713 19.5428 20.3999 19.5428 20.1428V18.2999C19.5428 18.0428 19.3713 17.8713 19.1142 17.8713H17.2713C17.0142 17.8713 16.8428 18.0428 16.8428 18.2999V20.1428C16.8428 20.3999 17.0142 20.5713 17.2713 20.5713ZM17.6999 18.7285H18.6856V19.7142H17.6999V18.7285Z" fill="black"/>
<path d="M11.871 17.8713H10.0282C9.77104 17.8713 9.59961 18.0428 9.59961 18.2999V20.1428C9.59961 20.3999 9.77104 20.5713 10.0282 20.5713H11.871C12.1282 20.5713 12.2996 20.3999 12.2996 20.1428V18.2999C12.2996 18.0856 12.0853 17.8713 11.871 17.8713ZM11.4425 19.7142H10.4568V18.7285H11.4425V19.7142Z" fill="black"/>
<path d="M8.27143 15.5571H6.42857C6.17143 15.5571 6 15.7286 6 15.9857V17.8286C6 18.0857 6.17143 18.2571 6.42857 18.2571H8.27143C8.52857 18.2571 8.7 18.0857 8.7 17.8286V15.9857C8.7 15.7714 8.48571 15.5571 8.27143 15.5571ZM7.84286 17.4428H6.85714V16.4571H7.84286V17.4428Z" fill="black"/>
<path d="M15.4711 15.5571H13.6283C13.3711 15.5571 13.1997 15.7286 13.1997 15.9857V17.8286C13.1997 18.0857 13.3711 18.2571 13.6283 18.2571H15.4711C15.7283 18.2571 15.8997 18.0857 15.8997 17.8286V15.9857C15.8997 15.7714 15.7283 15.5571 15.4711 15.5571ZM15.0426 17.4428H14.0568V16.4571H15.0426V17.4428Z" fill="black"/>
</svg>
